#N canvas 0 0 1600 1113 12;
#X msg 60 55 devices;
#X obj 60 134 comport 32 9600;
#X obj 7 179 print;
#X msg 144 58 open 32;
#X obj 60 227 sel 13 10;
#X floatatom 60 445 5 0 0 0 - - - 0;
#X obj 60 269 cyclone/zl group 100;
#X obj 60 370 cyclone/fromsymbol;
#X obj 60 317 list tosymbol;
#X msg 238 58 close;
#X text 809 355;
#X floatatom 232 562 5 0 0 0 - - - 0;
#X floatatom 463 562 5 0 0 0 - - - 0;
#X floatatom 699 567 5 0 0 0 - - - 0;
#X obj 463 622 osc~;
#X obj 464 697 *~;
#X obj 232 797 +~;
#X obj 233 844 osc~;
#X obj 233 900 *~ 0.5;
#X obj 233 978 dac~, f 5;
#X text 455 467 FM Synt;
#X text 198 508 Carrier Frequency;
#X text 444 508 Modulator Frequency;
#X text 671 511 Modulator Depth;
#X text 260 622 Modulating Oscillator --->;
#X text 271 844 <----CarrierOscillator;
#X text 506 697 <---- scalling Modulating Ocsillator's amplitude;
#X text 262 796 <--- Frequency signals are added;
#X connect 0 0 1 0;
#X connect 1 0 4 0;
#X connect 1 0 2 0;
#X connect 3 0 1 0;
#X connect 4 0 6 0;
#X connect 4 2 6 0;
#X connect 5 0 11 0;
#X connect 6 0 8 0;
#X connect 7 0 5 0;
#X connect 8 0 7 0;
#X connect 9 0 1 0;
#X connect 11 0 16 0;
#X connect 12 0 14 0;
#X connect 13 0 15 1;
#X connect 14 0 15 0;
#X connect 15 0 16 1;
#X connect 16 0 17 0;
#X connect 17 0 18 0;
#X connect 18 0 19 0;
#X connect 18 0 19 1;
